<svg xmlns="http://www.w3.org/2000/svg" xmlns:xlink="http://www.w3.org/1999/xlink" width="100" zoomAndPan="magnify" viewBox="0 0 75 74.999997" height="100" preserveAspectRatio="xMidYMid meet" version="1.0"><path stroke-linecap="butt" transform="matrix(0.064248, 0, 0, 0.064248, 0.00000279, -0.00000186)" fill-opacity="1" fill="#5f20d5" fill-rule="nonzero" stroke-linejoin="miter" d="M 459.401265 735.492039 C 458.428473 734.458447 457.394881 733.728853 456.604487 732.938459 C 439.398217 716.279385 374.889908 646.785514 353.610069 621.918503 C 349.475701 617.115339 339.930173 601.976254 331.479037 588.600356 C 322.602305 574.616462 313.543174 560.085373 305.882432 549.688652 C 298.28249 539.170331 291.472941 531.205592 284.420195 524.274445 C 279.556232 519.714479 275.300264 516.370505 270.922698 513.999323 C 263.687553 510.229751 256.391608 508.162567 249.278062 508.162567 C 223.19506 508.162567 210.609556 532.482382 209.211167 540.811919 C 208.663971 543.912695 208.663971 547.31747 209.089568 552.181433 C 210.427157 566.712522 214.987123 581.182812 222.587065 594.072314 L 235.476567 616.203346 L 262.77556 657.72943 C 262.897159 657.911829 263.140357 658.094228 263.201156 658.398225 C 246.238085 649.399894 226.539035 638.03038 218.209498 625.870473 C 208.420773 611.70418 198.510448 580.270819 195.288072 568.779706 L 162.638721 421.280027 C 158.017956 386.624291 133.81974 374.281985 114.303088 374.281985 C 112.418302 374.281985 110.776715 374.403584 109.682323 374.464383 C 74.904987 377.017964 63.231476 405.16815 63.900271 423.894408 C 64.325868 454.354976 102.872775 644.049534 109.256726 669.706939 C 117.403864 702.234692 138.014908 719.805759 142.392474 723.271332 C 152.302799 731.722468 292.99293 850.889562 306.429628 861.468682 C 310.1384 864.447859 311.41519 866.636643 311.779987 867.427037 L 314.880764 917.890653 C 316.400752 942.575266 337.072595 961.909519 361.878806 961.909519 L 451.801323 961.909519 C 477.823525 961.909519 498.860165 940.812079 498.860165 914.972275 L 498.860165 830.582517 C 500.684152 773.187753 471.804371 746.800754 459.401265 735.492039 Z M 458.854069 829.609724 L 458.854069 914.972275 C 458.854069 918.802646 455.692493 921.903423 451.801323 921.903423 L 361.878806 921.903423 C 358.230834 921.903423 355.008459 918.985045 354.82606 915.397872 L 351.664484 864.995055 C 351.482085 858.975901 348.928505 844.080014 331.11424 830.096121 C 320.59592 821.827383 219.729487 736.525632 167.806681 692.506766 L 166.773089 691.716372 C 166.71229 691.594773 152.971594 680.590057 147.925232 659.979013 C 140.203691 628.910449 103.663169 445.113446 103.663169 423.408011 L 103.663169 422.496018 C 103.663169 422.496018 103.906367 420.003237 104.75756 417.996852 C 105.426355 416.659262 106.399148 414.592078 112.600701 414.227281 L 112.783099 414.34888 L 114.120689 414.105682 C 116.370272 414.105682 121.173436 414.105682 122.815023 426.873585 L 122.875823 427.907177 L 156.07237 577.778038 L 156.315569 578.690031 C 157.592359 583.493195 169.387469 625.870473 184.891351 648.427101 C 200.212835 670.679732 230.369406 686.366013 252.500438 697.978725 C 258.641191 701.2011 263.869951 703.997879 267.821921 706.308261 C 270.922698 708.071448 276.212257 710.989826 282.109813 713.421807 C 285.514587 714.880996 289.223359 715.610591 292.810531 715.610591 C 303.085653 715.610591 312.387983 709.895434 317.191146 700.714704 C 321.87271 691.594773 321.203916 680.772455 315.488759 672.442919 C 314.515966 670.92293 310.807195 663.870184 302.356059 647.028712 C 300.471273 643.076742 298.28249 639.30717 295.911308 635.719998 L 269.159511 595.166706 L 256.999603 574.130066 C 252.500438 566.286925 249.703659 557.714191 248.791666 549.141456 C 248.974064 548.837458 249.278062 548.472661 249.52126 548.411861 C 249.886058 548.472661 250.798051 548.837458 251.953242 549.384654 C 252.378839 549.567052 253.716428 550.357446 256.513207 553.093426 C 261.924366 558.261386 267.274725 564.706137 273.537078 573.278872 C 280.285827 582.702801 289.10176 596.625895 297.735294 610.062593 C 308.192814 626.721666 317.251946 641.070357 323.2711 648.001504 C 345.706129 674.084506 410.822434 744.186373 428.940697 761.69664 C 430.095888 762.851832 431.311879 763.946223 432.588669 765.101414 C 443.532586 775.133338 460.191659 790.394022 458.854069 829.609724 Z M 913.087417 376.531567 C 911.993026 376.409968 910.473037 376.288369 908.588252 376.288369 C 889.193199 376.288369 865.177382 388.630675 860.617416 422.982414 L 828.211262 569.205303 C 825.232085 579.906022 815.200161 611.70418 805.593834 625.748873 C 797.507496 637.483184 778.294842 648.670299 761.696568 657.607831 L 761.696568 657.486232 L 788.509164 616.872141 L 801.641864 594.497911 C 809.120208 581.669208 813.680173 567.320518 815.017763 552.911027 C 815.443359 548.047064 815.443359 544.58149 814.896164 541.480714 C 813.497774 533.151177 800.973069 509.013761 775.011667 509.013761 C 767.898121 509.013761 760.602176 510.898546 753.48863 514.728917 C 749.111064 517.0393 744.794296 520.322475 739.991133 524.94324 C 732.938387 531.691988 726.128838 539.839126 718.589696 550.114248 C 711.111352 560.38937 701.991422 574.798861 693.297088 588.721955 C 684.906752 601.854655 675.422024 616.99374 671.409254 621.675304 C 650.190215 646.359917 586.289901 715.184994 569.32683 731.600869 C 568.536436 732.391263 567.502844 733.181657 566.469252 734.215249 C 554.187745 745.402364 525.490363 771.606965 527.314349 828.576132 L 527.314349 912.236296 C 527.314349 938.0153 548.29019 958.930341 574.129993 958.930341 L 663.201316 958.930341 C 687.885929 958.930341 708.375373 939.717687 710.016961 915.093875 L 713.117737 865.116654 C 713.543334 864.32626 714.820124 862.198277 718.407297 859.401498 C 731.843995 848.883178 871.196536 730.688876 880.863662 722.420139 C 885.302029 718.893766 905.791473 701.383499 913.756212 669.159744 C 920.079364 643.684737 958.383073 455.874964 958.687071 425.596795 C 959.295066 406.992136 947.682355 378.963549 913.087417 376.531567 Z M 918.559376 425.231997 C 918.559376 446.694234 882.50525 628.78885 874.844508 659.614216 C 870.041345 679.130868 857.334241 689.892386 856.11825 690.865179 L 855.206257 691.594773 C 803.830648 735.188042 703.815408 819.820999 693.357887 827.968137 C 675.726021 841.891231 673.172441 856.665519 672.990042 862.684673 L 669.889266 912.601094 C 669.706867 916.066667 666.72769 918.924245 663.140517 918.924245 L 574.008394 918.924245 C 570.178023 918.924245 567.198846 915.945068 567.198846 912.236296 L 567.198846 827.48174 C 565.922056 788.691635 582.398731 773.61335 593.403447 763.581426 C 594.741037 762.426235 595.896228 761.331843 596.99062 760.237451 C 614.926483 742.909583 679.495593 673.415711 701.565825 647.454309 C 707.52418 640.583961 716.522511 626.417668 726.980032 609.880194 C 735.431168 596.625895 744.186301 582.8244 750.87425 573.400471 C 757.015004 565.010135 762.304563 558.565384 767.715722 553.397423 C 770.390902 550.783043 771.789291 549.992649 772.093289 549.810251 C 773.187681 549.202255 774.038874 548.898258 774.403671 548.837458 C 774.58607 549.019857 774.768469 549.202255 774.890068 549.384654 C 774.099674 557.77499 771.302895 566.286925 766.925328 574.008467 L 754.704621 594.862708 L 728.196023 635.112002 C 725.824841 638.699175 723.696857 642.529546 721.751272 646.299117 C 713.543334 663.01899 709.773763 670.010937 708.80097 671.470126 C 703.025014 679.921262 702.356219 690.74358 707.098583 699.741911 C 711.901746 708.922641 721.204076 714.637798 731.418398 714.637798 C 735.12717 714.637798 738.714343 713.908204 742.119117 712.388215 C 747.895073 710.017033 753.184633 707.098655 756.16381 705.335469 C 760.11578 703.025086 765.283741 700.167508 771.424494 697.127531 C 793.312328 685.697218 823.2257 670.010937 838.364785 647.879905 C 853.807868 625.627274 865.542179 583.493195 866.818969 578.690031 L 899.954717 429.791963 L 900.076316 428.81917 C 901.596305 416.659262 905.973871 416.294465 908.284254 416.294465 L 909.986641 416.416064 C 913.209017 416.598463 918.498576 416.902461 918.680975 424.441603 L 918.680975 425.231997 Z M 918.559376 425.231997 " stroke="#5e2dd2" stroke-width="1" stroke-opacity="1" stroke-miterlimit="4"/><path stroke-linecap="butt" transform="matrix(0.064248, 0, 0, 0.064248, 0.00000279, -0.00000186)" fill-opacity="1" fill="#0e14c4" fill-rule="nonzero" stroke-linejoin="miter" d="M 755.495015 371.910803 C 775.133266 340.72064 802.006662 297.978564 802.006662 238.09102 C 802.006662 136.67739 726.676034 54.111618 634.321536 54.111618 C 589.512276 54.111618 547.317397 73.385071 515.944836 107.73681 C 484.693873 73.385071 442.498994 54.111618 397.689734 54.111618 C 305.213637 54.111618 229.88301 136.555791 229.88301 238.09102 C 229.88301 297.978564 256.756405 340.72064 276.394656 371.910803 C 334.883812 464.812497 480.559504 579.419626 486.821857 584.222789 C 495.333792 590.910738 505.426516 594.376312 515.944836 594.376312 C 526.584755 594.376312 536.677478 590.910738 545.189413 584.222789 C 551.330167 579.298026 696.762661 465.116494 755.495015 371.910803 Z M 310.199199 350.509365 C 291.290543 320.535193 269.889106 286.365853 269.889106 238.09102 C 269.889106 158.686823 327.22307 94.117714 397.689734 94.117714 C 435.993443 94.117714 471.865171 113.330368 496.306585 146.709314 L 515.944836 173.58271 L 535.704685 146.709314 C 560.0853 113.330368 596.078627 94.117714 634.321536 94.117714 C 704.666601 94.117714 762.000566 158.686823 762.000566 238.09102 C 762.000566 286.487452 740.599128 320.535193 721.629672 350.509365 C 677.124411 421.280027 576.561975 506.885777 536.859877 539.41353 L 536.859877 371.910803 C 541.906238 372.2756 546.587803 372.397199 550.90457 372.397199 C 582.581129 372.397199 603.617769 362.97327 631.22076 336.586271 C 654.263784 314.637638 666.606091 268.490789 671.89565 242.894183 C 673.29404 236.388632 671.591653 229.579084 667.396485 224.532723 C 663.201316 219.425561 657.121363 216.446384 650.494213 216.446384 C 649.886218 216.446384 649.217423 216.446384 648.548628 216.507184 C 629.88317 218.209571 594.497839 223.803128 568.293238 242.954983 C 550.90457 255.662086 533.698301 280.285899 522.693584 304.423315 C 520.869598 300.167348 519.106412 296.397776 517.404024 293.175401 C 504.392923 267.821994 484.693873 243.927775 464.690825 229.275087 C 435.628646 207.995248 396.169746 201.854495 375.315504 200.091308 C 367.897961 199.483313 360.662816 202.52329 356.10285 208.299246 C 351.786083 213.588806 350.144496 220.519953 351.482085 227.207902 C 362.182804 278.583512 377.625887 312.327255 398.601727 330.08072 C 428.5151 355.373328 471.317975 368.019632 496.792981 370.086816 L 496.792981 540.994318 C 458.610871 509.804155 355.373256 422.25282 310.199199 350.509365 Z M 310.199199 350.509365 " stroke="#5e2dd2" stroke-width="1" stroke-opacity="1" stroke-miterlimit="4"/><path stroke-linecap="butt" transform="matrix(0.064248, 0, 0, 0.064248, 0.00000279, -0.00000186)" fill-opacity="1" fill="#0e14c4" fill-rule="nonzero" stroke-linejoin="miter" d="M 459.401265 735.492039 C 458.428473 734.458447 457.394881 733.728853 456.604487 732.938459 C 439.398217 716.279385 374.889908 646.785514 353.610069 621.918503 C 349.475701 617.115339 339.930173 601.976254 331.479037 588.600356 C 322.602305 574.616462 313.543174 560.085373 305.882432 549.688652 C 298.28249 539.170331 291.472941 531.205592 284.420195 524.274445 C 279.556232 519.714479 275.300264 516.370505 270.922698 513.999323 C 263.687553 510.229751 256.391608 508.162567 249.278062 508.162567 C 223.19506 508.162567 210.609556 532.482382 209.211167 540.811919 C 208.663971 543.912695 208.663971 547.31747 209.089568 552.181433 C 210.427157 566.712522 214.987123 581.182812 222.587065 594.072314 L 235.476567 616.203346 L 262.77556 657.72943 C 262.897159 657.911829 263.140357 658.094228 263.201156 658.398225 C 246.238085 649.399894 226.539035 638.03038 218.209498 625.870473 C 208.420773 611.70418 198.510448 580.270819 195.288072 568.779706 L 162.638721 421.280027 C 158.017956 386.624291 133.81974 374.281985 114.303088 374.281985 C 112.418302 374.281985 110.776715 374.403584 109.682323 374.464383 C 74.904987 377.017964 63.231476 405.16815 63.900271 423.894408 C 64.325868 454.354976 102.872775 644.049534 109.256726 669.706939 C 117.403864 702.234692 138.014908 719.805759 142.392474 723.271332 C 152.302799 731.722468 292.99293 850.889562 306.429628 861.468682 C 310.1384 864.447859 311.41519 866.636643 311.779987 867.427037 L 314.880764 917.890653 C 316.400752 942.575266 337.072595 961.909519 361.878806 961.909519 L 451.801323 961.909519 C 477.823525 961.909519 498.860165 940.812079 498.860165 914.972275 L 498.860165 830.582517 C 500.684152 773.187753 471.804371 746.800754 459.401265 735.492039 Z M 459.401265 735.492039 " stroke="#5e2dd2" stroke-width="1" stroke-opacity="1" stroke-miterlimit="4"/><path stroke-linecap="butt" transform="matrix(0.064248, 0, 0, 0.064248, 0.00000279, -0.00000186)" fill-opacity="1" fill="#5dceea" fill-rule="nonzero" stroke-linejoin="miter" d="M 458.854069 829.609724 L 458.854069 914.972275 C 458.854069 918.802646 455.692493 921.903423 451.801323 921.903423 L 361.878806 921.903423 C 358.230834 921.903423 355.008459 918.985045 354.82606 915.397872 L 351.664484 864.995055 C 351.482085 858.975901 348.928505 844.080014 331.11424 830.096121 C 320.59592 821.827383 219.729487 736.525632 167.806681 692.506766 L 166.773089 691.716372 C 166.71229 691.594773 152.971594 680.590057 147.925232 659.979013 C 140.203691 628.910449 103.663169 445.113446 103.663169 423.408011 L 103.663169 422.496018 C 103.663169 422.496018 103.906367 420.003237 104.75756 417.996852 C 105.426355 416.659262 106.399148 414.592078 112.600701 414.227281 L 112.783099 414.34888 L 114.120689 414.105682 C 116.370272 414.105682 121.173436 414.105682 122.815023 426.873585 L 122.875823 427.907177 L 156.07237 577.778038 L 156.315569 578.690031 C 157.592359 583.493195 169.387469 625.870473 184.891351 648.427101 C 200.212835 670.679732 230.369406 686.366013 252.500438 697.978725 C 258.641191 701.2011 263.869951 703.997879 267.821921 706.308261 C 270.922698 708.071448 276.212257 710.989826 282.109813 713.421807 C 285.514587 714.880996 289.223359 715.610591 292.810531 715.610591 C 303.085653 715.610591 312.387983 709.895434 317.191146 700.714704 C 321.87271 691.594773 321.203916 680.772455 315.488759 672.442919 C 314.515966 670.92293 310.807195 663.870184 302.356059 647.028712 C 300.471273 643.076742 298.28249 639.30717 295.911308 635.719998 L 269.159511 595.166706 L 256.999603 574.130066 C 252.500438 566.286925 249.703659 557.714191 248.791666 549.141456 C 248.974064 548.837458 249.278062 548.472661 249.52126 548.411861 C 249.886058 548.472661 250.798051 548.837458 251.953242 549.384654 C 252.378839 549.567052 253.716428 550.357446 256.513207 553.093426 C 261.924366 558.261386 267.274725 564.706137 273.537078 573.278872 C 280.285827 582.702801 289.10176 596.625895 297.735294 610.062593 C 308.192814 626.721666 317.251946 641.070357 323.2711 648.001504 C 345.706129 674.084506 410.822434 744.186373 428.940697 761.69664 C 430.095888 762.851832 431.311879 763.946223 432.588669 765.101414 C 443.532586 775.133338 460.191659 790.394022 458.854069 829.609724 Z M 458.854069 829.609724 " stroke="#5e2dd2" stroke-width="1" stroke-opacity="1" stroke-miterlimit="4"/><path stroke-linecap="butt" transform="matrix(0.064248, 0, 0, 0.064248, 0.00000279, -0.00000186)" fill-opacity="1" fill="#0e14c4" fill-rule="nonzero" stroke-linejoin="miter" d="M 913.087417 376.531567 C 911.993026 376.409968 910.473037 376.288369 908.588252 376.288369 C 889.193199 376.288369 865.177382 388.630675 860.617416 422.982414 L 828.211262 569.205303 C 825.232085 579.906022 815.200161 611.70418 805.593834 625.748873 C 797.507496 637.483184 778.294842 648.670299 761.696568 657.607831 L 761.696568 657.486232 L 788.509164 616.872141 L 801.641864 594.497911 C 809.120208 581.669208 813.680173 567.320518 815.017763 552.911027 C 815.443359 548.047064 815.443359 544.58149 814.896164 541.480714 C 813.497774 533.151177 800.973069 509.013761 775.011667 509.013761 C 767.898121 509.013761 760.602176 510.898546 753.48863 514.728917 C 749.111064 517.0393 744.794296 520.322475 739.991133 524.94324 C 732.938387 531.691988 726.128838 539.839126 718.589696 550.114248 C 711.111352 560.38937 701.991422 574.798861 693.297088 588.721955 C 684.906752 601.854655 675.422024 616.99374 671.409254 621.675304 C 650.190215 646.359917 586.289901 715.184994 569.32683 731.600869 C 568.536436 732.391263 567.502844 733.181657 566.469252 734.215249 C 554.187745 745.402364 525.490363 771.606965 527.314349 828.576132 L 527.314349 912.236296 C 527.314349 938.0153 548.29019 958.930341 574.129993 958.930341 L 663.201316 958.930341 C 687.885929 958.930341 708.375373 939.717687 710.016961 915.093875 L 713.117737 865.116654 C 713.543334 864.32626 714.820124 862.198277 718.407297 859.401498 C 731.843995 848.883178 871.196536 730.688876 880.863662 722.420139 C 885.302029 718.893766 905.791473 701.383499 913.756212 669.159744 C 920.079364 643.684737 958.383073 455.874964 958.687071 425.596795 C 959.295066 406.992136 947.682355 378.963549 913.087417 376.531567 Z M 913.087417 376.531567 " stroke="#5e2dd2" stroke-width="1" stroke-opacity="1" stroke-miterlimit="4"/><path stroke-linecap="butt" transform="matrix(0.064248, 0, 0, 0.064248, 0.00000279, -0.00000186)" fill-opacity="1" fill="#5dceea" fill-rule="nonzero" stroke-linejoin="miter" d="M 918.559376 425.231997 C 918.559376 446.694234 882.50525 628.78885 874.844508 659.614216 C 870.041345 679.130868 857.334241 689.892386 856.11825 690.865179 L 855.206257 691.594773 C 803.830648 735.188042 703.815408 819.820999 693.357887 827.968137 C 675.726021 841.891231 673.172441 856.665519 672.990042 862.684673 L 669.889266 912.601094 C 669.706867 916.066667 666.72769 918.924245 663.140517 918.924245 L 574.008394 918.924245 C 570.178023 918.924245 567.198846 915.945068 567.198846 912.236296 L 567.198846 827.48174 C 565.922056 788.691635 582.398731 773.61335 593.403447 763.581426 C 594.741037 762.426235 595.896228 761.331843 596.99062 760.237451 C 614.926483 742.909583 679.495593 673.415711 701.565825 647.454309 C 707.52418 640.583961 716.522511 626.417668 726.980032 609.880194 C 735.431168 596.625895 744.186301 582.8244 750.87425 573.400471 C 757.015004 565.010135 762.304563 558.565384 767.715722 553.397423 C 770.390902 550.783043 771.789291 549.992649 772.093289 549.810251 C 773.187681 549.202255 774.038874 548.898258 774.403671 548.837458 C 774.58607 549.019857 774.768469 549.202255 774.890068 549.384654 C 774.099674 557.77499 771.302895 566.286925 766.925328 574.008467 L 754.704621 594.862708 L 728.196023 635.112002 C 725.824841 638.699175 723.696857 642.529546 721.751272 646.299117 C 713.543334 663.01899 709.773763 670.010937 708.80097 671.470126 C 703.025014 679.921262 702.356219 690.74358 707.098583 699.741911 C 711.901746 708.922641 721.204076 714.637798 731.418398 714.637798 C 735.12717 714.637798 738.714343 713.908204 742.119117 712.388215 C 747.895073 710.017033 753.184633 707.098655 756.16381 705.335469 C 760.11578 703.025086 765.283741 700.167508 771.424494 697.127531 C 793.312328 685.697218 823.2257 670.010937 838.364785 647.879905 C 853.807868 625.627274 865.542179 583.493195 866.818969 578.690031 L 899.954717 429.791963 L 900.076316 428.81917 C 901.596305 416.659262 905.973871 416.294465 908.284254 416.294465 L 909.986641 416.416064 C 913.209017 416.598463 918.498576 416.902461 918.680975 424.441603 L 918.680975 425.231997 Z M 918.559376 425.231997 " stroke="#5e2dd2" stroke-width="1" stroke-opacity="1" stroke-miterlimit="4"/></svg>